<?xml version="1.0" encoding="utf-8"?>
<!-- Generator: Adobe Illustrator 21.0.0, SVG Export Plug-In . SVG Version: 6.00 Build 0)  -->
<svg version="1.1" id="Layer_1" xmlns="http://www.w3.org/2000/svg" xmlns:xlink="http://www.w3.org/1999/xlink" x="0px" y="0px"
	 viewBox="0 0 48 48" style="enable-background:new 0 0 48 48;" xml:space="preserve">
<style type="text/css">
	.st0{fill:#A6E4F4;}
	.st1{fill:#49C1EA;stroke:#000000;stroke-miterlimit:10;}
	.st2{fill:#FFFFFF;}
	.st3{opacity:0.3;fill:#EF4848;}
	.st4{fill:#EF4848;stroke:#000000;stroke-miterlimit:10;}
	.st5{fill:#FF5A44;}
	.st6{fill:#CCCCCC;}
	.st7{fill:#020202;}
	.st8{fill:#FBD56F;}
	.st9{fill:#F0B168;}
	.st10{fill:#89A2B0;}
	.st11{fill:#D9EDF9;}
	.st12{fill:#00ACEA;}
	.st13{fill:#00CEB4;}
	.st14{fill:#00EFD1;}
	.st15{fill:#D4E1F4;}
	.st16{fill:#77B5ED;}
	.st17{fill:#00B594;}
	.st18{fill:#FFCC03;}
</style>
<g>
	<g>
		<path class="st12" d="M39.2,11.5c1.5,0.2,2.5,1.5,2.3,3l-2.1,18.3c-0.2,1.5-1.5,2.5-2.9,2.3c0,0-0.1,0-0.1,0h-0.1V18.3
			c0-1.5-1.2-2.7-2.7-2.7H11.2l0.5-4.5c0.1-1.5,1.4-2.5,2.9-2.4c0,0,0.1,0,0.1,0L39.2,11.5z"/>
		<path class="st13" d="M36.3,35.1v1.6c0,1.5-1.2,2.7-2.7,2.7H9c-1.5,0-2.7-1.2-2.7-2.7v-3.8l7.4-5.4c1.2-0.9,2.8-0.8,3.9,0.2
			l4.9,4.3c1,0.9,2.5,1,3.7,0.3l10.1-5.9V35.1z"/>
		<path class="st14" d="M36.3,18.3v8.1l-10.1,5.9C25,33,23.6,32.9,22.5,32l-4.9-4.3c-1.1-1-2.7-1.1-3.9-0.2l-7.4,5.4V18.3
			c0-1.5,1.2-2.7,2.7-2.7h24.7C35.1,15.6,36.3,16.8,36.3,18.3z M27.1,23c0-1.6-1.3-2.9-2.9-2.9c-1.6,0-2.9,1.3-2.9,2.9c0,0,0,0,0,0
			c0,1.6,1.3,2.9,2.9,2.9C25.8,25.9,27.1,24.6,27.1,23C27.1,23,27.1,23,27.1,23z"/>
		<circle class="st15" cx="24.2" cy="23" r="2.9"/>
	</g>
	<g>
		<path class="st7" d="M24.2,26.8c-2.1,0-3.8-1.7-3.8-3.8c0-2.1,1.7-3.8,3.8-3.8S28,20.9,28,23C28,25.1,26.3,26.8,24.2,26.8z
			 M24.2,21c-1.1,0-2,0.9-2,2s0.9,2,2,2c1.1,0,2-0.9,2-2C26.2,21.9,25.3,21,24.2,21L24.2,21z"/>
		<path class="st7" d="M41.7,12c-0.6-0.7-1.4-1.2-2.4-1.3L14.8,7.8c-1-0.1-1.9,0.1-2.7,0.8c-0.7,0.6-1.2,1.4-1.3,2.3l-0.4,3.7H9
			c-2,0-3.5,1.8-3.5,3.7v18.4c0,1.9,1.4,3.5,3.3,3.5c0,0,0.1,0,0.1,0h24.7c2,0,3.8-1.5,3.8-3.5V36c0.6-0.1,1.2-0.4,1.7-0.7
			c0.7-0.6,1.2-1.5,1.3-2.4l2.1-18.2C42.6,13.6,42.3,12.7,41.7,12z M9,16.4h24.7c1.1,0,1.9,0.9,2,1.9v7.5l-9.8,5.7
			c-0.8,0.5-1.9,0.4-2.7-0.2L18.2,27c-1.4-1.2-3.5-1.3-5-0.2l-5.9,4.3V18.3C7.3,17.3,8,16.4,9,16.4z M33.6,38.4H9
			c-0.9,0-1.6-0.7-1.7-1.6c0,0,0-0.1,0-0.1v-3.3l7-5.1c0.8-0.6,2-0.6,2.8,0.1l4.9,4.3c0.7,0.6,1.7,1,2.7,1c0.8,0,1.5-0.2,2.2-0.6
			l8.9-5.1v8.7C35.6,37.7,34.6,38.4,33.6,38.4z M40.7,14.4l-2.1,18.2c0,0.5-0.2,0.9-0.6,1.2c-0.2,0.2-0.6,0.3-0.6,0.4V18.3
			c-0.1-2-1.7-3.7-3.8-3.7H12.2l0.4-3.5c0.1-0.5,0.3-0.9,0.7-1.2c0.4-0.3,0.9-0.4,1.3-0.4l24.5,2.8c0.5,0,0.9,0.3,1.2,0.7
			C40.6,13.4,40.7,13.9,40.7,14.4z"/>
	</g>
</g>
</svg>
